<svg width="180" height="48" viewBox="0 0 180 48" fill="none" xmlns="http://www.w3.org/2000/svg">
<path d="M54.7522 0.437988H4.38017C1.96107 0.437988 0 2.39906 0 4.81816V42.9257C0 45.3448 1.96107 47.3059 4.38017 47.3059H54.7522C57.1713 47.3059 59.1324 45.3448 59.1324 42.9257V4.81816C59.1324 2.39906 57.1713 0.437988 54.7522 0.437988Z" fill="#323232"/>
<path d="M11.2109 22.7473L21.3505 15.9762C21.7923 15.6813 21.9116 15.0837 21.6161 14.6415C21.3212 14.1998 20.7241 14.0799 20.2814 14.3759L10.1417 21.1469C9.27655 21.7243 8.76025 22.6905 8.76025 23.7308C8.76025 24.7711 9.27655 25.7372 10.1417 26.3146L20.2814 33.0857C20.4455 33.1954 20.6312 33.2478 20.815 33.2478C21.1258 33.2478 21.4309 33.0977 21.6161 32.8201C21.9116 32.3779 21.7923 31.7803 21.3505 31.4853L11.2109 24.7138C10.8769 24.4905 10.6849 24.1325 10.6849 23.7303C10.6849 23.3285 10.8769 22.9705 11.2109 22.7473Z" fill="url(#paint0_linear_105_213)"/>
<path d="M49.1895 21.1472L39.0493 14.3761C38.6076 14.0807 38.0095 14.2 37.7145 14.6417C37.4191 15.0839 37.5384 15.6816 37.9801 15.9765L48.1198 22.7475C48.4537 22.9708 48.6457 23.3288 48.6457 23.7306C48.6457 24.1323 48.4542 24.4908 48.1198 24.7141L37.9806 31.4856C37.5389 31.7805 37.4196 32.3781 37.715 32.8203C37.9003 33.098 38.2053 33.2481 38.5161 33.2481C38.6995 33.2481 38.8857 33.1956 39.0498 33.0859L49.1895 26.3149C50.0546 25.7375 50.5709 24.7713 50.5709 23.731C50.5709 22.6908 50.0546 21.7246 49.1895 21.1472Z" fill="url(#paint1_linear_105_213)"/>
<path d="M34.3429 9.24391C33.8367 9.08272 33.2954 9.36179 33.1338 9.86798L24.3635 37.3476C24.2018 37.8538 24.4814 38.3951 24.9876 38.5568C25.0847 38.5876 25.1834 38.6025 25.2801 38.6025C25.6877 38.6025 26.0659 38.3417 26.1967 37.9322L34.967 10.4531C35.1287 9.9469 34.8491 9.40558 34.3429 9.24391Z" fill="url(#paint2_linear_105_213)"/>
<path d="M72.8042 26.9092H77.6558V4.88186H71.5687L72.8042 5.81602V26.9092ZM81.8145 3.10333V28.6875C81.8145 30.375 80.4885 31.6708 78.8011 31.6708H68.6459V26.9097V1.05499L67.8926 0.120839H78.801C80.4584 0.120839 81.8145 1.50613 81.8145 3.10333ZM83.6223 1.05443L82.8689 0.120274H94.7115V4.88143H86.5452L87.7808 5.81559V13.4998H92.6625V18.291H86.5453L87.7809 19.195V26.9093H94.7116V31.6704H83.6223V26.9093V18.2909V13.4997L83.6223 1.05443ZM95.2841 0.120139H100.106L102.908 22.7809L105.68 0.120139H109.839L105.982 31.6707H99.8041L96.0675 1.05443H96.0374L95.2841 0.120139ZM111.828 0.964269L111.074 0.0301137H122.917V4.79127H114.751L115.986 5.72543V13.4397H120.838V18.2008H114.751L115.986 19.135V31.5806H111.828L111.828 0.964269ZM127.829 26.9092H132.71V4.88186H126.623L127.829 5.81602V26.9092ZM136.838 3.10333V28.6875C136.838 30.375 135.543 31.6708 133.855 31.6708H126.683C124.996 31.6708 123.7 30.3751 123.7 28.6875V3.10333C123.7 1.50625 124.996 0.120027 126.683 0.120027H133.855C135.543 0.120027 136.838 1.50613 136.838 3.10333ZM142.835 13.4098H147.687V4.76138H141.6L142.835 5.69554V13.4098ZM151.816 3.01317V15.1871C151.816 16.8746 150.52 18.1704 148.832 18.1704H148.26L151.816 31.5796H147.537L143.981 18.1704H141.6L142.836 19.1046V31.5806H138.677V4.76114V0.934155L137.924 0L148.833 0.0301341C150.52 0.0301341 151.816 1.32559 151.816 3.01317ZM166.581 3.10333V11.1792H162.453V4.8813H156.366L157.571 5.81545V26.9097H162.453V14.4337L161.217 13.4995H166.581V31.6703H156.426C154.738 31.6703 153.443 30.3746 153.443 28.687V3.10277C153.443 1.50568 154.738 0.119463 156.426 0.119463H163.598C165.285 0.119463 166.581 1.50613 166.581 3.10333ZM168.299 1.05443L167.545 0.120274H179.388V4.88143H171.222L172.457 5.81559V13.4998H177.339V18.291H171.222L172.457 19.195V26.9093H179.388V31.6704H168.299V26.9093V18.2909V13.4997L168.299 1.05443Z" fill="#323232"/>
<path d="M68.0578 40.5091L67.8926 40.3043H70.4894V41.3483H68.6987L68.9696 41.5531V43.2447H70.0334V44.2887H68.6987L68.9696 44.4936V47.2225H68.0578L68.0578 40.5091ZM72.3701 46.1985H73.4405V41.3683H72.1058L72.3701 41.5732L72.3701 46.1985ZM74.3457 40.9787V46.5884C74.3457 46.9584 74.0616 47.2426 73.6916 47.2426H72.119C71.749 47.2426 71.4649 46.9584 71.4649 46.5884V40.9787C71.4649 40.6285 71.749 40.3245 72.119 40.3245H73.6916C74.0616 40.3245 74.3457 40.6285 74.3457 40.9787ZM76.4643 43.2383H77.5282V41.3419H76.1934L76.4643 41.5467L76.4643 43.2383ZM78.4334 40.9584V43.6279C78.4334 43.9979 78.1492 44.282 77.7792 44.282H77.6537L78.4334 47.2224H77.4951L76.7154 44.282H76.1934L76.4643 44.4869V47.2225H75.5525V41.3419V40.5027L75.3873 40.2979L77.7793 40.3045C78.1493 40.3045 78.4334 40.5884 78.4334 40.9584ZM82.4748 40.9787V42.7495H81.5695V41.3685H80.2348L80.4991 41.5734V46.1987H81.5695V43.4631L81.2986 43.2583H82.4748V47.2427H80.2481C79.878 47.2427 79.5939 46.9586 79.5939 46.5886V40.9788C79.5939 40.6286 79.878 40.3247 80.2481 40.3247H81.8207C82.1907 40.3247 82.4748 40.6285 82.4748 40.9787ZM83.6551 40.5289L83.4899 40.3241H86.0866V41.3681H84.296L84.5669 41.5729V43.2579H85.6373V44.3085H84.296L84.5669 44.5067V46.1983H86.0867V47.2423H83.6551V46.1983V44.3085V43.2579L83.6551 40.5289ZM89.3657 40.3179H90.4229L91.1564 43.2516L91.8832 40.3179H92.8215L91.6189 45.1282L91.6057 45.1877V47.2427H90.7004V45.1811L90.6872 45.1282L89.5374 40.5227L89.3657 40.3179ZM94.6824 46.1985H95.7528V41.3683H94.4181L94.6824 41.5732L94.6824 46.1985ZM96.658 40.9787V46.5884C96.658 46.9584 96.3739 47.2426 96.0039 47.2426H94.4313C94.0613 47.2426 93.7771 46.9584 93.7771 46.5884V40.9787C93.7771 40.6285 94.0613 40.3245 94.4313 40.3245H96.0039C96.3739 40.3245 96.658 40.6285 96.658 40.9787ZM98.7634 46.1985H99.8272V40.3179H100.739V46.582C100.739 46.9521 100.435 47.2362 100.085 47.2362L98.5123 47.2428C98.1423 47.2428 97.8581 46.9521 97.8581 46.582V40.523H97.8515L97.6863 40.3182H98.7634L98.7634 46.1985ZM102.99 43.2383H104.054V41.3419H102.719L102.99 41.5467L102.99 43.2383ZM104.959 40.9584V43.6279C104.959 43.9979 104.675 44.282 104.305 44.282H104.179L104.959 47.2224H104.021L103.241 44.282H102.719L102.99 44.4869V47.2225H102.078V41.3419V40.5027L101.913 40.2979L104.305 40.3045C104.675 40.3045 104.959 40.5884 104.959 40.9584ZM108.562 40.5091L108.396 40.3043H110.993V41.3483H109.203L109.473 41.5531V43.2447H110.537V44.2887H109.203L109.474 44.4936V47.2225H108.562L108.562 40.5091ZM113.026 46.1985H114.09V40.3179H115.002V46.582C115.002 46.9521 114.698 47.2362 114.347 47.2362L112.775 47.2428C112.405 47.2428 112.121 46.9521 112.121 46.582V40.523H112.114L111.949 40.3182H113.026L113.026 46.1985ZM117.021 41.3553H116.036V40.3047H118.917V41.3553H117.662L117.933 41.5535V47.2295H117.021L117.021 41.3553ZM121.003 46.1985H122.067V40.3179H122.979V46.582C122.979 46.9521 122.675 47.2362 122.324 47.2362L120.752 47.2428C120.382 47.2428 120.098 46.9521 120.098 46.582V40.523H120.091L119.926 40.3182H121.003L121.003 46.1985ZM125.229 43.2383H126.293V41.3419H124.958L125.229 41.5467L125.229 43.2383ZM127.198 40.9584V43.6279C127.198 43.9979 126.914 44.282 126.544 44.282H126.419L127.198 47.2224H126.26L125.48 44.282H124.958L125.229 44.4869V47.2225H124.318V41.3419V40.5027L124.152 40.2979L126.544 40.3045C126.914 40.3045 127.198 40.5884 127.198 40.9584ZM128.366 40.5289L128.2 40.3241H130.797V41.3681H129.006L129.277 41.5729V43.2579H130.348V44.3085H129.006L129.277 44.5067V46.1983H130.797V47.2423H128.366V46.1983V44.3085V43.2579L128.366 40.5289ZM135.305 47.2227H134.393V40.5093L134.228 40.3044H135.305L135.305 47.2227ZM136.479 40.3179H137.774L138.62 44.0908V40.3245H139.525V47.2361H138.395L137.556 43.4829V47.2427H136.644V40.5229L136.479 40.3179ZM143.729 40.3179H145.5V41.3619H143.709L143.98 41.5601C143.954 42.723 143.954 45.0357 143.98 46.1921H145.5V47.2361H143.729C143.359 47.2361 143.075 46.9519 143.075 46.5819V40.9722C143.075 40.6022 143.359 40.3179 143.729 40.3179ZM147.394 46.1985H148.464V41.3683H147.13L147.394 41.5732L147.394 46.1985ZM149.369 40.9787V46.5884C149.369 46.9584 149.085 47.2426 148.715 47.2426H147.143C146.773 47.2426 146.489 46.9584 146.489 46.5884V40.9787C146.489 40.6285 146.773 40.3245 147.143 40.3245H148.715C149.085 40.3245 149.369 40.6285 149.369 40.9787ZM151.481 46.1985H152.545V41.3683H151.211L151.481 41.5732L151.481 46.1985ZM153.457 40.9787V46.5884C153.457 46.9584 153.166 47.2426 152.796 47.2426H150.57V46.1986V40.529L150.404 40.3242H152.796C153.16 40.3242 153.457 40.6285 153.457 40.9787ZM154.657 40.5289L154.492 40.3241H157.089V41.3681H155.298L155.569 41.5729V43.2579H156.64V44.3085H155.298L155.569 44.5067V46.1983H157.089V47.2423H154.657V46.1983V44.3085V43.2579L154.657 40.5289Z" fill="#323232"/>
<defs>
<linearGradient id="paint0_linear_105_213" x1="15.2693" y1="14.2134" x2="15.2693" y2="33.2478" gradientUnits="userSpaceOnUse">
<stop stop-color="#FAA43F"/>
<stop offset="0.465" stop-color="#F5783B"/>
<stop offset="0.995" stop-color="#F04B37"/>
</linearGradient>
<linearGradient id="paint1_linear_105_213" x1="44.0616" y1="14.2139" x2="44.0616" y2="33.2481" gradientUnits="userSpaceOnUse">
<stop stop-color="#FAA43F"/>
<stop offset="0.465" stop-color="#F5783B"/>
<stop offset="0.995" stop-color="#F04B37"/>
</linearGradient>
<linearGradient id="paint2_linear_105_213" x1="29.6652" y1="9.19824" x2="29.6652" y2="38.6025" gradientUnits="userSpaceOnUse">
<stop stop-color="#FAA43F"/>
<stop offset="0.465" stop-color="#F5783B"/>
<stop offset="0.995" stop-color="#F04B37"/>
</linearGradient>
</defs>
</svg>
