<svg width="930" height="311" viewBox="0 0 930 311" fill="none" xmlns="http://www.w3.org/2000/svg">
<path d="M40.9631 199.849H81.4247V36.7199H30.6587L40.9631 43.638V199.849ZM116.108 23.5486V213.018C116.108 225.515 105.049 235.112 90.9761 235.112H6.28289V199.852V8.37918L0 1.46109H90.9756C104.798 1.46109 116.108 11.7202 116.108 23.5486ZM131.185 8.37501L124.902 1.45691H223.668V36.7168H155.562L165.866 43.6349V100.542H206.58V136.024H155.563L165.867 142.719V199.849H223.669V235.109H131.185V199.849V136.024V100.541L131.185 8.37501ZM228.444 1.45591H268.655L292.027 169.275L315.148 1.45591H349.829L317.66 235.111H266.14L234.977 8.37501H234.726L228.444 1.45591ZM366.416 7.70731L360.133 0.789207H458.899V36.0491H390.793L401.097 42.9672V100.097H441.559V135.357H390.793L401.097 142.275V234.443H366.416L366.416 7.70731ZM499.864 199.849H540.577V36.7199H489.811L499.864 43.638V199.849ZM575.004 23.5486V213.018C575.004 225.515 564.198 235.112 550.123 235.112H490.311C476.237 235.112 465.43 225.516 465.43 213.018V23.5486C465.43 11.7211 476.236 1.45508 490.311 1.45508H550.123C564.197 1.45508 575.004 11.7202 575.004 23.5486ZM625.019 99.8757H665.481V35.8277H614.715L625.019 42.7458V99.8757ZM699.915 22.8809V113.038C699.915 125.535 689.108 135.131 675.034 135.131H670.259L699.914 234.436H664.227L634.572 135.131H614.718L625.023 142.05V234.443H590.341V35.8259V7.48429L584.059 0.566193L675.034 0.789358C689.108 0.789358 699.915 10.3831 699.915 22.8809ZM823.056 23.5486V83.3567H788.626V36.7158H737.86L747.913 43.6339V199.852H788.626V107.458L778.322 100.54H823.056V235.108H738.363C724.29 235.108 713.482 225.512 713.482 213.014V23.5445C713.482 11.7169 724.289 1.4509 738.363 1.4509H798.176C812.249 1.4509 823.056 11.7202 823.056 23.5486ZM837.38 8.37501L831.097 1.45691H929.864V36.7168H861.757L872.062 43.6349V100.542H912.775V136.024H861.758L872.062 142.719V199.849H929.865V235.109H837.38V199.849V136.024V100.541L837.38 8.37501Z" fill="url(#paint0_linear_1_133)"/>
<path d="M7.37766 260.605L6 259.088H27.6571V266.82H12.723L14.9824 268.337V280.864H23.8546V288.596H12.7231L14.9825 290.112V310.322H7.37782L7.37766 260.605ZM43.3421 302.739H52.2696V266.968H41.1381L43.3423 268.485L43.3421 302.739ZM59.819 264.082V305.626C59.819 308.367 57.4494 310.471 54.3635 310.471H41.2481C38.1621 310.471 35.7926 308.367 35.7926 305.626V264.082C35.7926 261.489 38.1622 259.238 41.2481 259.238H54.3635C57.4495 259.238 59.819 261.489 59.819 264.082ZM77.4879 280.816H86.3601V266.772H75.2286L77.488 268.289L77.4879 280.816ZM93.9096 263.932V283.702C93.9096 286.442 91.54 288.546 88.4541 288.546H87.4071L93.9096 310.322H86.0843L79.5819 288.546H75.2286L77.488 290.063V310.322H69.8833V266.772V260.557L68.5056 259.04L88.4545 259.089C91.5405 259.089 93.9096 261.192 93.9096 263.932ZM127.615 264.082V277.197H120.065V266.969H108.933L111.138 268.486V302.74H120.065V282.482L117.806 280.965H127.615V310.472H109.044C105.958 310.472 103.588 308.368 103.588 305.628V264.083C103.588 261.49 105.958 259.239 109.044 259.239H122.159C125.245 259.239 127.615 261.489 127.615 264.082ZM137.458 260.751L136.08 259.234H157.737V266.966H142.803L145.063 268.483V280.961H153.99V288.742H142.804L145.063 290.21V302.737H157.738V310.469H137.458V302.737V288.742V280.962L137.458 260.751ZM185.084 259.188H193.901L200.018 280.915L206.08 259.188H213.906L203.876 294.812L203.766 295.253V310.472H196.216V295.204L196.106 294.813L186.517 260.706L185.084 259.188ZM229.425 302.739H238.353V266.968H227.221L229.425 268.485L229.425 302.739ZM245.902 264.082V305.626C245.902 308.367 243.532 310.471 240.447 310.471H227.331C224.245 310.471 221.876 308.367 221.876 305.626V264.082C221.876 261.489 224.245 259.238 227.331 259.238H240.447C243.533 259.238 245.902 261.489 245.902 264.082ZM263.46 302.739H272.333V259.189H279.937V305.579C279.937 308.32 277.402 310.424 274.482 310.424L261.367 310.473C258.281 310.473 255.911 308.319 255.911 305.579V260.708H255.856L254.478 259.191H263.461L263.46 302.739ZM298.709 280.816H307.581V266.772H296.449L298.709 268.289L298.709 280.816ZM315.13 263.932V283.702C315.13 286.442 312.761 288.546 309.675 288.546H308.628L315.13 310.322H307.305L300.803 288.546H296.449L298.709 290.063V310.322H291.104V266.772V260.557L289.726 259.04L309.675 259.089C312.761 259.089 315.13 261.192 315.13 263.932ZM345.178 260.605L343.8 259.088H365.457V266.82H350.523L352.782 268.337V280.864H361.655V288.596H350.523L352.782 290.112V310.322H345.178L345.178 260.605ZM382.409 302.739H391.281V259.189H398.886V305.579C398.886 308.32 396.351 310.424 393.431 310.424L380.315 310.473C377.229 310.473 374.86 308.319 374.86 305.579V260.708H374.805L373.427 259.191H382.409L382.409 302.739ZM415.728 266.871H407.517V259.091H431.544V266.871H421.074L423.333 268.339V310.374H415.728L415.728 266.871ZM448.937 302.739H457.81V259.189H465.414V305.579C465.414 308.32 462.879 310.424 459.959 310.424L446.843 310.473C443.757 310.473 441.388 308.319 441.388 305.579V260.708H441.333L439.955 259.191H448.937L448.937 302.739ZM484.186 280.816H493.058V266.772H481.926L484.186 268.289L484.186 280.816ZM500.607 263.932V283.702C500.607 286.442 498.238 288.546 495.152 288.546H494.105L500.607 310.322H492.782L486.28 288.546H481.926L484.186 290.063V310.322H476.581V266.772V260.557L475.203 259.04L495.152 259.089C498.238 259.089 500.607 261.192 500.607 263.932ZM510.341 260.751L508.963 259.234H530.62V266.966H515.686L517.945 268.483V280.961H526.873V288.742H515.686L517.945 290.21V302.737H530.62V310.469H510.341V302.737V288.742V280.962L510.341 260.751ZM568.217 310.324H560.612V260.606L559.235 259.089H568.217L568.217 310.324ZM578.005 259.188H588.806L595.86 287.13V259.237H603.41V310.423H593.986L586.988 282.628V310.472H579.383V260.707L578.005 259.188ZM638.472 259.188H653.241V266.92H638.306L640.566 268.388C640.345 277 640.345 294.128 640.566 302.691H653.241V310.423H638.472C635.386 310.423 633.016 308.319 633.016 305.578V264.034C633.016 261.294 635.386 259.188 638.472 259.188ZM669.036 302.739H677.963V266.968H666.832L669.036 268.485L669.036 302.739ZM685.513 264.082V305.626C685.513 308.367 683.143 310.471 680.057 310.471H666.942C663.856 310.471 661.486 308.367 661.486 305.626V264.082C661.486 261.489 663.856 259.238 666.942 259.238H680.057C683.143 259.238 685.513 261.489 685.513 264.082ZM703.126 302.739H711.998V266.968H700.867L703.126 268.485L703.126 302.739ZM719.603 264.082V305.626C719.603 308.367 717.178 310.471 714.092 310.471H695.521V302.739V260.752L694.144 259.235H714.093C717.124 259.235 719.603 261.489 719.603 264.082ZM729.612 260.751L728.234 259.234H749.891V266.966H734.957L737.217 268.483V280.961H746.144V288.742H734.958L737.217 290.21V302.737H749.892V310.469H729.612V302.737V288.742V280.962L729.612 260.751Z" fill="url(#paint1_linear_1_133)"/>
<defs>
<linearGradient id="paint0_linear_1_133" x1="0" y1="0.566193" x2="929.865" y2="0.566193" gradientUnits="userSpaceOnUse">
<stop stop-color="#EF4136"/>
<stop offset="1" stop-color="#FBB040"/>
</linearGradient>
<linearGradient id="paint1_linear_1_133" x1="6" y1="259.04" x2="749.892" y2="259.04" gradientUnits="userSpaceOnUse">
<stop stop-color="#EF4136"/>
<stop offset="1" stop-color="#FBB040"/>
</linearGradient>
</defs>
</svg>
