<svg width="152" height="184" viewBox="0 0 152 184" fill="none" xmlns="http://www.w3.org/2000/svg">
<path d="M150.832 78.8331C150.461 79.2051 150.02 79.5001 149.534 79.7014C149.048 79.9027 148.528 80.0063 148.002 80.0063C147.477 80.0063 146.956 79.9027 146.47 79.7014C145.985 79.5001 145.544 79.2051 145.172 78.8331L80.0022 13.6631V180.003C80.0022 181.064 79.5808 182.081 78.8307 182.832C78.0805 183.582 77.0631 184.003 76.0022 184.003C74.9414 184.003 73.9239 183.582 73.1738 182.832C72.4237 182.081 72.0022 181.064 72.0022 180.003V13.6631L6.83223 78.8331C6.46058 79.2048 6.01938 79.4996 5.53381 79.7007C5.04824 79.9018 4.5278 80.0054 4.00222 80.0054C3.47664 80.0054 2.95621 79.9018 2.47064 79.7007C1.98507 79.4996 1.54386 79.2048 1.17222 78.8331C0.800581 78.4615 0.50578 78.0203 0.304649 77.5347C0.103519 77.0492 0 76.5287 0 76.0031C0 75.4776 0.103519 74.9571 0.304649 74.4716C0.50578 73.986 0.800581 73.5448 1.17222 73.1731L73.1722 1.17315C73.5437 0.801239 73.9849 0.506206 74.4705 0.304909C74.9561 0.103612 75.4766 0 76.0022 0C76.5279 0 77.0484 0.103612 77.534 0.304909C78.0196 0.506206 78.4607 0.801239 78.8322 1.17315L150.832 73.1731C151.204 73.5446 151.499 73.9858 151.7 74.4714C151.902 74.957 152.005 75.4775 152.005 76.0031C152.005 76.5288 151.902 77.0493 151.7 77.5349C151.499 78.0205 151.204 78.4617 150.832 78.8331Z" fill="#323232"/>
</svg>
