<svg width="48" height="39" viewBox="0 0 48 39" fill="none" xmlns="http://www.w3.org/2000/svg">
<path d="M44.4444 0H3.55556C1.59188 0 0 1.59188 0 3.55556V34.4889C0 36.4526 1.59188 38.0444 3.55556 38.0444H44.4444C46.4081 38.0444 48 36.4526 48 34.4889V3.55556C48 1.59188 46.4081 0 44.4444 0Z" fill="url(#paint0_linear_12_8)"/>
<path d="M9.10036 18.1095L17.3311 12.6132C17.6897 12.3738 17.7866 11.8887 17.5467 11.5297C17.3073 11.1712 16.8226 11.0739 16.4633 11.3141L8.23248 16.8104C7.53021 17.2791 7.11111 18.0634 7.11111 18.9079C7.11111 19.7523 7.53021 20.5366 8.23248 21.0053L16.4633 26.5016C16.5964 26.5907 16.7472 26.6332 16.8964 26.6332C17.1487 26.6332 17.3964 26.5114 17.5467 26.286C17.7866 25.9271 17.6897 25.442 17.3311 25.2025L9.10036 19.7058C8.82929 19.5246 8.67345 19.234 8.67345 18.9075C8.67345 18.5814 8.82929 18.2908 9.10036 18.1095Z" fill="#323232"/>
<path d="M39.9291 16.8105L31.698 11.3142C31.3394 11.0743 30.8539 11.1712 30.6145 11.5298C30.3747 11.8887 30.4715 12.3738 30.8301 12.6132L39.0609 18.1095C39.3319 18.2908 39.4878 18.5814 39.4878 18.9075C39.4878 19.2336 39.3323 19.5246 39.0609 19.7059L30.8305 25.2025C30.4719 25.442 30.3751 25.9271 30.6149 26.286C30.7653 26.5114 31.0129 26.6332 31.2652 26.6332C31.414 26.6332 31.5652 26.5907 31.6984 26.5016L39.9291 21.0053C40.6314 20.5366 41.0505 19.7523 41.0505 18.9079C41.0505 18.0634 40.6314 17.2792 39.9291 16.8105Z" fill="#323232"/>
<path d="M27.8777 7.14818C27.4668 7.01734 27.0274 7.24388 26.8961 7.65477L19.777 29.961C19.6457 30.3719 19.8727 30.8113 20.2835 30.9426C20.3624 30.9675 20.4425 30.9797 20.521 30.9797C20.8518 30.9797 21.1588 30.768 21.2651 30.4356L28.3843 8.12972C28.5155 7.71883 28.2886 7.27942 27.8777 7.14818Z" fill="#323232"/>
<defs>
<linearGradient id="paint0_linear_12_8" x1="0" y1="0" x2="48" y2="0" gradientUnits="userSpaceOnUse">
<stop stop-color="#EF4136"/>
<stop offset="1" stop-color="#FBB040"/>
</linearGradient>
</defs>
</svg>
